<svg width="83" height="83" viewBox="0 0 83 83" fill="none" xmlns="http://www.w3.org/2000/svg">
<path d="M41.5 45.65C42.6758 45.65 43.6622 45.2516 44.459 44.4548C45.253 43.6608 45.65 42.6758 45.65 41.5V24.7962C45.65 23.6204 45.253 22.6521 44.459 21.8913C43.6622 21.1304 42.6758 20.75 41.5 20.75C40.3242 20.75 39.3392 21.147 38.5452 21.9411C37.7484 22.7379 37.35 23.7242 37.35 24.9V41.6037C37.35 42.7796 37.7484 43.7479 38.5452 44.5088C39.3392 45.2696 40.3242 45.65 41.5 45.65ZM41.5 62.25C42.6758 62.25 43.6622 61.8516 44.459 61.0548C45.253 60.2608 45.65 59.2758 45.65 58.1C45.65 56.9242 45.253 55.9379 44.459 55.141C43.6622 54.347 42.6758 53.95 41.5 53.95C40.3242 53.95 39.3392 54.347 38.5452 55.141C37.7484 55.9379 37.35 56.9242 37.35 58.1C37.35 59.2758 37.7484 60.2608 38.5452 61.0548C39.3392 61.8516 40.3242 62.25 41.5 62.25ZM41.5 83C35.7592 83 30.3642 81.9099 25.315 79.7298C20.2658 77.5524 15.8738 74.5963 12.1388 70.8613C8.40375 67.1263 5.44757 62.7342 3.2702 57.685C1.09007 52.6358 0 47.2408 0 41.5C0 35.7592 1.09007 30.3642 3.2702 25.315C5.44757 20.2658 8.40375 15.8738 12.1388 12.1388C15.8738 8.40375 20.2658 5.44618 25.315 3.26605C30.3642 1.08868 35.7592 0 41.5 0C47.2408 0 52.6358 1.08868 57.685 3.26605C62.7342 5.44618 67.1263 8.40375 70.8613 12.1388C74.5963 15.8738 77.5524 20.2658 79.7298 25.315C81.9099 30.3642 83 35.7592 83 41.5C83 47.2408 81.9099 52.6358 79.7298 57.685C77.5524 62.7342 74.5963 67.1263 70.8613 70.8613C67.1263 74.5963 62.7342 77.5524 57.685 79.7298C52.6358 81.9099 47.2408 83 41.5 83Z" fill="#FF3030"/>
</svg>
